<?xml version="1.0" encoding="UTF-8" standalone="no"?>
<!DOCTYPE svg PUBLIC "-//W3C//DTD SVG 1.1//EN" "http://www.w3.org/Graphics/SVG/1.1/DTD/svg11.dtd">
<svg version="1.1" xmlns="http://www.w3.org/2000/svg" xmlns:xlink="http://www.w3.org/1999/xlink" preserveAspectRatio="xMidYMid meet" viewBox="0 0 640 640" width="640" height="640"><defs><path d="M388.01 85.01C388.01 36.17 388.01 9.03 388.01 3.61C379.95 2.5 352.21 0 319.91 0C252.52 0 206.36 42.39 206.36 120.3C206.36 125.08 206.36 148.98 206.36 192L131.99 192L131.99 283.01L206.36 283.01L206.36 512L297.54 512L297.54 283.03L368.9 283.03L380.22 192.02L297.51 192.02C297.51 154.4 297.51 133.5 297.51 129.32C297.54 103.02 304.62 85.01 341.27 85.01C347.5 85.01 363.08 85.01 388.01 85.01Z" id="e3gC1lEaM9"></path></defs><g><g><g><use xlink:href="#e3gC1lEaM9" opacity="1" fill="#ffffff" fill-opacity="1"></use><g><use xlink:href="#e3gC1lEaM9" opacity="1" fill-opacity="0" stroke="#000000" stroke-width="1" stroke-opacity="0"></use></g></g></g></g></svg>