<?xml version="1.0" encoding="UTF-8" standalone="no"?>
<!DOCTYPE svg PUBLIC "-//W3C//DTD SVG 1.1//EN" "http://www.w3.org/Graphics/SVG/1.1/DTD/svg11.dtd">
<svg version="1.1" xmlns="http://www.w3.org/2000/svg" xmlns:xlink="http://www.w3.org/1999/xlink" preserveAspectRatio="xMidYMid meet" viewBox="0 0 640 640" width="640" height="640"><defs><path d="M173.24 0C77.71 0 0 77.71 0 173.24C0 202.59 0 437.41 0 466.76C0 562.28 77.71 640 173.24 640C202.59 640 437.41 640 466.76 640C562.28 640 640 562.28 640 466.76C640 437.41 640 202.59 640 173.24C640 77.71 562.28 0 466.76 0C466.76 0 202.59 0 173.24 0ZM602.48 466.76C602.48 541.6 541.6 602.48 466.76 602.48C437.41 602.48 202.59 602.48 173.24 602.48C98.4 602.48 37.52 541.6 37.52 466.76C37.52 437.41 37.52 202.59 37.52 173.24C37.52 98.4 98.4 37.52 173.24 37.52C202.59 37.52 437.41 37.52 466.76 37.52C541.6 37.52 602.48 98.4 602.48 173.24C602.48 231.95 602.48 408.06 602.48 466.76Z" id="c44632ZhCQ"></path><path d="M145 320C145 416.49 223.51 494.99 320 494.99C416.49 494.99 494.99 416.49 494.99 320C494.99 223.51 416.49 145 320 145C223.51 145 145 223.51 145 320ZM182.52 320C182.52 244.2 244.2 182.52 320 182.52C395.8 182.52 457.47 244.2 457.47 320C457.47 395.8 395.8 457.47 320 457.47C244.2 457.47 182.52 395.8 182.52 320Z" id="g1hVqgL3hz"></path><path d="M447.47 134.57C447.47 163.08 470.66 186.28 499.18 186.28C527.69 186.28 550.89 163.08 550.89 134.57C550.89 106.05 527.69 82.86 499.18 82.86C470.66 82.86 447.47 106.05 447.47 134.57ZM484.99 134.57C484.99 126.74 491.36 120.38 499.18 120.38C507.01 120.38 513.37 126.74 513.37 134.57C513.37 142.39 507.01 148.75 499.18 148.75C491.36 148.75 484.99 142.39 484.99 134.57Z" id="ceheoMKCg"></path></defs><g><g><g><use xlink:href="#c44632ZhCQ" opacity="1" fill="#ffffff" fill-opacity="1"></use><g><use xlink:href="#c44632ZhCQ" opacity="1" fill-opacity="0" stroke="#000000" stroke-width="1" stroke-opacity="0"></use></g></g><g><use xlink:href="#g1hVqgL3hz" opacity="1" fill="#ffffff" fill-opacity="1"></use><g><use xlink:href="#g1hVqgL3hz" opacity="1" fill-opacity="0" stroke="#000000" stroke-width="1" stroke-opacity="0"></use></g></g><g><use xlink:href="#ceheoMKCg" opacity="1" fill="#ffffff" fill-opacity="1"></use><g><use xlink:href="#ceheoMKCg" opacity="1" fill-opacity="0" stroke="#000000" stroke-width="1" stroke-opacity="0"></use></g></g></g></g></svg>