<?xml version="1.0" encoding="UTF-8" standalone="no"?>
<!DOCTYPE svg PUBLIC "-//W3C//DTD SVG 1.1//EN" "http://www.w3.org/Graphics/SVG/1.1/DTD/svg11.dtd">
<svg version="1.1" xmlns="http://www.w3.org/2000/svg" xmlns:xlink="http://www.w3.org/1999/xlink" preserveAspectRatio="xMidYMid meet" viewBox="0 0 640 640" width="640" height="640"><defs><path d="M134.06 301.25C138.9 303.64 144.62 303.47 149.25 300.76C156.68 296.44 193.83 274.84 260.69 235.97C220.22 271.83 197.73 291.76 193.24 295.74C189.8 298.79 187.84 303.15 187.84 307.73C187.84 322.29 187.84 438.77 187.84 453.33C187.84 468.69 207.45 475.16 216.64 462.95C220.25 458.16 238.29 434.17 270.76 391C351.07 436.73 395.68 462.14 404.61 467.22C413.99 472.62 426.03 467.2 428.2 456.47C436.55 414.87 503.33 82.07 511.68 40.47C514.18 27.97 501.74 17.77 490.18 22.42C442.18 41.14 58.18 190.9 10.18 209.62C-2.71 214.66 -3.54 232.68 8.85 238.85C8.85 238.85 121.54 295.01 134.06 301.25ZM474.56 62.87L401.19 428.46C325.1 385.12 282.82 361.04 274.37 356.22C267.46 352.28 258.56 354.03 253.65 360.51C251.4 363.51 240.13 378.49 219.84 405.46L219.84 314.92C329.29 217.95 390.1 164.08 402.26 153.3C416.7 140.52 400.11 117.8 383.62 127.49C367.42 136.91 286.42 184 140.63 268.76L55.47 226.33L474.56 62.87Z" id="a7qDylfwO"></path></defs><g><g><g><use xlink:href="#a7qDylfwO" opacity="1" fill="#ffffff" fill-opacity="1"></use><g><use xlink:href="#a7qDylfwO" opacity="1" fill-opacity="0" stroke="#000000" stroke-width="1" stroke-opacity="0"></use></g></g></g></g></svg>