<?xml version="1.0" encoding="UTF-8" standalone="no"?>
<!DOCTYPE svg PUBLIC "-//W3C//DTD SVG 1.1//EN" "http://www.w3.org/Graphics/SVG/1.1/DTD/svg11.dtd">
<svg version="1.1" xmlns="http://www.w3.org/2000/svg" xmlns:xlink="http://www.w3.org/1999/xlink" preserveAspectRatio="xMidYMid meet" viewBox="0 0 640 640" width="640" height="640"><defs><path d="M529.82 67.01C525.87 70.89 525.8 77.23 529.68 81.18C567.24 119.5 587.92 170.16 587.92 223.83C587.92 233.45 587.92 310.42 587.92 320.04C587.92 432.41 496.51 523.82 384.14 523.82C372.38 523.82 278.31 523.82 266.55 523.82C263.89 523.82 261.34 524.88 259.46 526.76C254.19 532.03 227.82 558.4 180.36 605.86C180.36 551.97 180.36 522.03 180.36 516.04C180.36 512.06 178 508.45 174.35 506.86C100.07 474.4 52.08 401.07 52.08 320.04C52.08 310.42 52.08 233.45 52.08 223.83C52.08 111.46 143.49 20.04 255.86 20.04C268.69 20.04 371.31 20.04 384.14 20.04C424.19 20.04 462.95 31.65 496.22 53.61C500.84 56.66 507.06 55.38 510.11 50.76C513.16 46.14 511.88 39.92 507.26 36.88C470.7 12.75 428.13 0 384.14 0C371.31 0 268.69 0 255.86 0C132.44 0 32.03 100.41 32.03 223.83C32.03 233.45 32.03 310.42 32.03 320.04C32.03 406.83 82.17 485.58 160.31 522.49C160.31 533.25 160.31 619.3 160.31 630.06C160.31 638.78 171.23 643.33 177.42 637.15C183.64 630.93 214.73 599.84 270.7 543.87C338.77 543.87 376.58 543.87 384.14 543.87C507.56 543.87 607.97 443.46 607.97 320.04C607.97 310.42 607.97 233.45 607.97 223.83C607.97 164.88 585.25 109.24 543.99 67.15C540.12 63.2 533.77 63.13 529.82 67.01Z" id="abTRkuDXBb"></path><path d="M471.13 345.84C470.38 341.81 467.26 338.64 463.24 337.84C455.68 336.32 395.2 324.23 387.65 322.72C384.36 322.06 380.96 323.09 378.59 325.46C375.49 328.56 350.66 353.39 347.56 356.5C295.24 333.15 266.34 304.18 240.88 249.63C243.97 246.53 268.72 221.78 271.82 218.69C274.19 216.32 275.21 212.92 274.56 209.63C273.05 202.08 260.95 141.6 259.44 134.04C258.64 130.02 255.47 126.9 251.43 126.15C246.23 125.19 204.58 117.5 199.37 116.54C198.03 116.29 196.66 116.32 195.33 116.62C181.7 119.72 169.27 126.59 159.38 136.48C142.25 153.61 135.7 178.64 140.46 208.86C142.62 222.62 145.84 236.87 150.02 251.23C151.57 256.54 157.14 259.59 162.45 258.05C167.76 256.5 170.82 250.94 169.27 245.62C165.32 232.08 162.29 218.66 160.26 205.74C156.49 181.78 160.96 163.24 173.55 150.65C180.3 143.9 188.67 139.08 197.85 136.64C200.74 137.18 215.16 139.84 241.12 144.63L253.86 208.31C234.61 227.55 223.92 238.24 221.79 240.37C218.85 243.31 218.03 247.75 219.72 251.55C248.87 316.84 283.08 351.01 345.91 377.63C349.67 379.23 354.02 378.38 356.91 375.49C359.04 373.36 369.73 362.67 388.97 343.42L452.65 356.16C457.44 382.12 460.11 396.54 460.64 399.43C458.2 408.61 453.38 416.97 446.63 423.73C434.03 436.31 415.49 440.79 391.53 437.01C343.62 429.48 277.17 406.22 234.34 363.56C234.28 363.5 233.79 363.01 233.72 362.94C214.02 343.16 196.46 315.88 182.94 284.04C180.78 278.95 174.9 276.58 169.8 278.74C164.71 280.9 162.33 286.78 164.49 291.88C179 326.05 198.03 355.51 219.56 377.13C219.62 377.19 220.12 377.68 220.18 377.75C266.42 423.8 337.4 448.79 388.42 456.82C394.82 457.82 400.98 458.32 406.9 458.32C428.88 458.32 447.29 451.4 460.8 437.9C470.69 428 477.56 415.57 480.65 401.94C480.96 400.62 480.99 399.25 480.74 397.91C478.82 387.5 472.09 351.05 471.13 345.84Z" id="a3Ztj3NZ4"></path><path d="M331.36 191.76C331.36 197.29 335.84 201.78 341.38 201.78C365.33 201.78 384.81 221.26 384.81 245.21C384.81 250.67 389.37 255.23 394.83 255.23C400.29 255.23 404.85 250.67 404.85 245.21C404.85 210.21 376.38 181.74 341.38 181.74C335.84 181.74 331.36 186.22 331.36 191.76Z" id="c4xTAEAbz"></path><path d="M329.59 139.62C324.09 140.23 320.12 145.18 320.73 150.68C321.33 156.18 326.28 160.14 331.79 159.54C334.95 159.19 338.18 159.02 341.38 159.02C388.9 159.02 427.57 197.68 427.57 245.21C427.57 248.41 427.39 251.63 427.04 254.8C426.44 260.3 430.4 265.25 435.9 265.86C441.33 266.45 446.37 262.44 446.97 257C447.39 253.11 447.61 249.14 447.61 245.21C447.61 186.63 399.96 138.97 341.38 138.97C337.45 138.97 333.48 139.19 329.59 139.62Z" id="c1XhG2nrLE"></path><path d="M329.93 96.65C324.41 97.06 320.28 101.88 320.7 107.4C321.12 112.92 325.91 117.04 331.45 116.63C334.74 116.38 338.08 116.26 341.38 116.26C412.49 116.26 470.33 174.1 470.33 245.21C470.33 255.27 469.17 265.28 466.88 274.97C465.64 280.22 468.93 285.64 474.15 286.98C479.51 288.37 485.12 284.97 486.39 279.58C489.03 268.38 490.38 256.82 490.38 245.21C490.38 163.05 423.54 96.21 341.38 96.21C337.58 96.21 333.73 96.36 329.93 96.65Z" id="e44jGPOcUu"></path></defs><g><g><g><use xlink:href="#abTRkuDXBb" opacity="1" fill="#ffffff" fill-opacity="1"></use><g><use xlink:href="#abTRkuDXBb" opacity="1" fill-opacity="0" stroke="#000000" stroke-width="1" stroke-opacity="0"></use></g></g><g><use xlink:href="#a3Ztj3NZ4" opacity="1" fill="#ffffff" fill-opacity="1"></use><g><use xlink:href="#a3Ztj3NZ4" opacity="1" fill-opacity="0" stroke="#000000" stroke-width="1" stroke-opacity="0"></use></g></g><g><use xlink:href="#c4xTAEAbz" opacity="1" fill="#ffffff" fill-opacity="1"></use><g><use xlink:href="#c4xTAEAbz" opacity="1" fill-opacity="0" stroke="#000000" stroke-width="1" stroke-opacity="0"></use></g></g><g><use xlink:href="#c1XhG2nrLE" opacity="1" fill="#ffffff" fill-opacity="1"></use><g><use xlink:href="#c1XhG2nrLE" opacity="1" fill-opacity="0" stroke="#000000" stroke-width="1" stroke-opacity="0"></use></g></g><g><use xlink:href="#e44jGPOcUu" opacity="1" fill="#ffffff" fill-opacity="1"></use><g><use xlink:href="#e44jGPOcUu" opacity="1" fill-opacity="0" stroke="#000000" stroke-width="1" stroke-opacity="0"></use></g></g></g></g></svg>